<svg data-v-423bf9ae="" xmlns="http://www.w3.org/2000/svg" viewBox="0 0 528 133" class="iconLeft"><!----><!----><!----><g data-v-423bf9ae="" id="10059047-64d3-46dc-a1d4-cd8d4724ae31" fill="#000000" transform="matrix(5.655691261731832,0,0,5.655691261731832,165.83551799360484,35.59229062104396)"><path d="M5.04 4.65L5.04 4.65C5.70 4.65 6.23 4.16 6.23 3.50C6.23 2.83 5.70 2.34 5.04 2.34L3.28 2.34C3.07 2.34 3.07 2.66 3.28 2.66L5.04 2.66C5.52 2.66 5.91 3.01 5.91 3.50C5.91 3.98 5.52 4.34 5.04 4.34L4.48 4.34C4.38 4.34 4.31 4.41 4.31 4.49C4.31 4.58 4.38 4.65 4.48 4.65ZM6.01 10.40L6.01 10.40L3.40 6.93C3.35 6.86 3.25 6.85 3.18 6.89C3.14 6.93 3.11 6.99 3.12 7.03L3.12 10.50C3.12 10.58 3.19 10.67 3.28 10.67C3.36 10.67 3.44 10.58 3.44 10.50L3.44 7.50L5.74 10.58C5.80 10.67 5.91 10.68 5.98 10.63C6.05 10.57 6.06 10.47 6.01 10.40ZM1.44 10.50L1.44 10.50L1.44 0.66L5.21 0.66C6.78 0.66 8.01 1.95 8.01 3.50C8.01 5.04 6.78 6.33 5.21 6.33C5.12 6.33 5.05 6.40 5.05 6.50C5.05 6.54 5.07 6.58 5.10 6.61L8.18 10.58C8.25 10.67 8.34 10.68 8.41 10.61C8.48 10.57 8.50 10.47 8.44 10.40L5.54 6.65C7.14 6.48 8.34 5.10 8.34 3.50C8.34 1.76 6.96 0.32 5.21 0.32L1.27 0.32C1.19 0.32 1.12 0.41 1.12 0.49L1.12 10.50C1.12 10.58 1.19 10.67 1.27 10.67C1.37 10.67 1.44 10.58 1.44 10.50ZM11.79 6.85L11.79 6.85C11.79 7.91 12.53 8.67 13.58 8.67C14.63 8.67 15.39 7.91 15.39 6.85L15.39 0.50C15.39 0.42 15.32 0.35 15.22 0.35C15.13 0.35 15.06 0.42 15.06 0.50L15.06 6.85C15.06 7.73 14.46 8.36 13.58 8.36C12.71 8.36 12.10 7.73 12.10 6.85L12.10 0.50C12.10 0.42 12.03 0.35 11.94 0.35C11.86 0.35 11.79 0.42 11.79 0.50ZM17.08 0.50L17.08 0.50L17.08 6.96C17.08 9.06 15.53 10.40 13.58 10.40C11.55 10.40 10.08 9.00 10.08 6.96L10.08 0.50C10.08 0.42 10.01 0.35 9.93 0.35C9.83 0.35 9.76 0.42 9.76 0.50L9.76 6.96C9.76 9.17 11.38 10.72 13.58 10.72C15.72 10.72 17.40 9.24 17.40 6.96L17.40 0.50C17.40 0.42 17.33 0.35 17.25 0.35C17.15 0.35 17.08 0.42 17.08 0.50ZM28.10 10.50L28.10 10.50L28.10 0.50C28.10 0.28 27.76 0.28 27.76 0.50L27.76 10.50C27.76 10.71 28.10 10.71 28.10 10.50ZM19.94 10.50L19.94 10.50L19.94 0.50C19.94 0.28 19.61 0.28 19.61 0.50L19.61 10.50C19.61 10.71 19.94 10.71 19.94 10.50ZM21.46 0.59L21.46 0.59L25.80 6.82C25.89 6.96 26.11 6.87 26.11 6.72L26.11 0.50C26.11 0.28 25.77 0.28 25.77 0.50L25.77 6.20L21.71 0.41C21.60 0.22 21.34 0.42 21.46 0.59ZM26.26 10.40L26.26 10.40L21.92 4.17C21.81 4.05 21.62 4.12 21.62 4.27L21.62 10.50C21.62 10.71 21.95 10.71 21.95 10.50L21.95 4.79L25.98 10.60C26.12 10.77 26.38 10.58 26.26 10.40ZM34.29 8.67L34.29 8.67C34.96 8.67 35.49 8.16 35.49 7.49C35.49 6.83 34.96 6.34 34.29 6.34L32.54 6.34C32.44 6.34 32.35 6.41 32.35 6.50C32.35 6.58 32.44 6.65 32.54 6.65L34.29 6.65C34.76 6.65 35.15 7 35.15 7.49C35.15 7.98 34.76 8.33 34.29 8.33L33.71 8.33C33.63 8.33 33.56 8.41 33.56 8.50C33.56 8.58 33.63 8.67 33.71 8.67ZM32.54 2.65L32.54 2.65L34.29 2.65C34.76 2.65 35.15 3.00 35.15 3.49C35.15 3.98 34.76 4.33 34.29 4.33L33.71 4.33C33.63 4.33 33.56 4.40 33.56 4.49C33.56 4.58 33.63 4.65 33.71 4.65L34.29 4.65C34.96 4.65 35.49 4.14 35.49 3.49C35.49 2.83 34.96 2.32 34.29 2.32L32.54 2.32C32.42 2.32 32.35 2.39 32.35 2.48C32.35 2.56 32.42 2.65 32.54 2.65ZM30.69 10.50L30.69 10.50L30.69 0.63L34.47 0.63C36.04 0.63 37.27 1.92 37.27 3.49C37.27 4.19 37.03 4.86 36.57 5.39C36.51 5.45 36.51 5.54 36.57 5.60C37.03 6.13 37.27 6.79 37.27 7.49C37.27 9.04 36.04 10.35 34.47 10.35L32.54 10.35C32.44 10.35 32.37 10.42 32.37 10.50C32.37 10.61 32.44 10.68 32.54 10.68L34.47 10.68C36.22 10.68 37.60 9.24 37.60 7.49C37.60 6.76 37.35 6.06 36.90 5.49C37.35 4.93 37.60 4.21 37.60 3.49C37.60 1.74 36.22 0.29 34.47 0.29L30.51 0.29C30.42 0.29 30.35 0.38 30.35 0.48L30.35 10.50C30.35 10.61 30.42 10.68 30.51 10.68C30.60 10.68 30.69 10.61 30.69 10.50ZM42.03 7.57L42.03 7.57L43.50 7.57C43.60 7.57 43.67 7.50 43.67 7.42C43.67 7.39 43.67 7.38 43.65 7.35L42.92 5.56C42.88 5.46 42.80 5.42 42.70 5.46C42.63 5.49 42.59 5.59 42.62 5.67L43.27 7.27L42.03 7.27C41.94 7.27 41.86 7.34 41.86 7.42C41.86 7.50 41.94 7.57 42.03 7.57ZM40.98 10.40L40.98 10.40L41.31 9.59L44.21 9.59L44.55 10.40C44.59 10.50 44.67 10.53 44.76 10.50C44.84 10.47 44.88 10.36 44.86 10.29L44.48 9.38C44.46 9.32 44.41 9.28 44.32 9.28L41.22 9.28C41.15 9.28 41.08 9.31 41.06 9.38L40.68 10.29C40.64 10.36 40.68 10.47 40.78 10.50C40.87 10.53 40.95 10.50 40.98 10.40ZM38.81 10.40L38.81 10.40L42.77 0.70L46.73 10.40C46.76 10.50 46.86 10.53 46.94 10.50C47.03 10.47 47.05 10.36 47.03 10.29L42.92 0.22C42.87 0.08 42.67 0.07 42.62 0.22L38.51 10.29C38.47 10.36 38.51 10.47 38.60 10.50C38.68 10.53 38.78 10.50 38.81 10.40ZM54.89 0.64L54.89 0.64C54.25 0.38 53.56 0.24 52.86 0.24C50.37 0.24 48.78 1.58 48.08 3.32C47.53 4.65 47.53 6.22 48.08 7.56C48.78 9.28 50.37 10.63 52.86 10.63C53.56 10.63 54.25 10.50 54.89 10.23C54.98 10.19 55.02 10.11 54.98 10.01C54.95 9.94 54.84 9.90 54.77 9.93C54.17 10.19 53.52 10.30 52.86 10.30C50.51 10.30 49.01 9.06 48.36 7.43C47.85 6.17 47.85 4.70 48.36 3.43C49.01 1.83 50.51 0.56 52.86 0.56C53.52 0.56 54.17 0.69 54.77 0.94C54.84 0.97 54.95 0.94 54.98 0.85C55.01 0.77 54.98 0.67 54.89 0.64ZM54.50 7.88L54.50 7.88C53.96 8.19 53.49 8.30 52.86 8.30C51.52 8.30 50.68 7.57 50.30 6.62C50.01 5.88 50.01 5.00 50.30 4.26C50.68 3.32 51.52 2.58 52.86 2.58C53.49 2.58 53.96 2.69 54.50 2.98C54.59 3.02 54.67 3.00 54.71 2.93C54.75 2.84 54.73 2.74 54.66 2.70C54.05 2.37 53.55 2.25 52.86 2.25C51.38 2.25 50.41 3.08 50.01 4.14C49.69 4.96 49.69 5.91 50.01 6.73C50.41 7.80 51.38 8.61 52.86 8.61C53.55 8.61 54.05 8.50 54.66 8.16C54.73 8.12 54.75 8.02 54.71 7.95C54.67 7.87 54.59 7.84 54.50 7.88ZM56.92 10.50L56.92 10.50L56.92 0.49C56.92 0.41 56.85 0.34 56.77 0.34C56.67 0.34 56.60 0.41 56.60 0.49L56.60 10.50C56.60 10.58 56.67 10.65 56.77 10.65C56.85 10.65 56.92 10.58 56.92 10.50ZM60.93 0.39L60.93 0.39L58.93 3.08L58.93 0.49C58.93 0.41 58.86 0.34 58.77 0.34C58.67 0.34 58.60 0.41 58.60 0.49L58.60 3.56C58.60 3.61 58.62 3.67 58.67 3.70C58.74 3.75 58.84 3.74 58.90 3.67L61.19 0.59C61.25 0.52 61.24 0.42 61.17 0.36C61.08 0.31 60.98 0.32 60.93 0.39ZM61.40 10.40L61.40 10.40L58.90 6.90C58.84 6.82 58.74 6.80 58.67 6.86C58.63 6.89 58.60 6.94 58.60 7L58.60 10.50C58.60 10.58 58.67 10.65 58.77 10.65C58.86 10.65 58.93 10.58 58.93 10.50L58.93 7.49L61.14 10.58C61.19 10.65 61.29 10.68 61.36 10.63C61.43 10.57 61.45 10.47 61.40 10.40ZM63.36 0.39L63.36 0.39L59.88 5.18C59.84 5.24 59.84 5.32 59.88 5.38L59.88 5.38L63.57 10.58C63.63 10.65 63.73 10.68 63.80 10.63C63.87 10.57 63.90 10.47 63.84 10.40L60.21 5.28L63.63 0.59C63.69 0.52 63.67 0.42 63.60 0.36C63.52 0.31 63.42 0.32 63.36 0.39Z"></path></g><defs data-v-423bf9ae=""><linearGradient data-v-423bf9ae="" gradientTransform="rotate(25)" id="4da59cd7-a877-478c-aa79-69c6f16d60f2" x1="0%" y1="0%" x2="100%" y2="0%"><stop data-v-423bf9ae="" offset="0%" style="stop-color: rgb(66, 47, 117); stop-opacity: 1;"></stop><stop data-v-423bf9ae="" offset="100%" style="stop-color: rgb(192, 179, 236); stop-opacity: 1;"></stop></linearGradient></defs><g data-v-423bf9ae="" id="9d8ed8aa-ccdf-4c83-a8ac-6014b5bb0ff2" transform="matrix(1.2130888197157117,0,0,1.2130888197157117,-1.3576951916635522,-11.226680739360575)" stroke="none" fill="url(#4da59cd7-a877-478c-aa79-69c6f16d60f2)"><path d="M75.878 9.411l-41.397 73.7 18.036.392 21.931-39.985a1 1 0 0 1 .313-.415c.013-.01.024-.019.038-.028.023-.016.043-.035.068-.051.012-.007.025-.01.037-.016.041-.023.082-.041.125-.059.012-.005.023-.011.035-.015a1.01 1.01 0 0 1 1.297.622l42.154 75.032 8.205-19.6L75.878 9.411z"></path><path d="M66.291 60.865l23.584 39.118a1.002 1.002 0 0 1 .205.528c.003.026.01.053.01.079 0 .014-.004.026-.004.04a.935.935 0 0 1-.013.141l-.005.035a1.009 1.009 0 0 1-1.187.812L1.28 100.602l13.572 16.986 103.664 1.001-43.133-72.703-9.092 14.979z"></path><path d="M78.917 84.105l-46.021 1a1.018 1.018 0 0 1-.559-.084c-.026-.012-.052-.02-.078-.034-.012-.006-.021-.016-.033-.022a1.078 1.078 0 0 1-.112-.079l-.032-.024a1.015 1.015 0 0 1-.359-.748c-.006-.262.091-.5.25-.684L75.878 9.411l-21.614 3.384L1.28 100.602l86.08-.997-8.443-15.5z"></path></g><!----></svg>